<svg width="41" height="41" viewBox="0 0 41 41" fill="none" xmlns="http://www.w3.org/2000/svg">
<rect x="1.72396" y="1.84896" width="37.2396" height="37.2396" rx="18.6198" stroke="white" stroke-width="3.38542"/>
<path fill-rule="evenodd" clip-rule="evenodd" d="M15.4585 8.69072C16.7224 8.63279 17.1253 8.61963 20.3436 8.61963C23.5625 8.61963 23.9647 8.63345 25.2279 8.69072C26.4899 8.748 27.3516 8.94877 28.1053 9.2417C28.8958 9.53933 29.6119 10.0057 30.2039 10.6083C30.8065 11.2001 31.273 11.9163 31.5705 12.7069C31.8634 13.4606 32.0635 14.3223 32.1215 15.5835C32.1794 16.8474 32.1925 17.2503 32.1925 20.4686C32.1925 23.6869 32.1788 24.0897 32.1215 25.3537C32.0641 26.6149 31.8634 27.4766 31.5705 28.2303C31.2677 29.0091 30.8621 29.6706 30.2039 30.3289C29.6121 30.9315 28.8958 31.398 28.1053 31.6955C27.3516 31.9884 26.4899 32.1885 25.2287 32.2465C23.9647 32.3044 23.5619 32.3175 20.3436 32.3175C17.1253 32.3175 16.7224 32.3038 15.4585 32.2465C14.1973 32.1891 13.3356 31.9884 12.5819 31.6955C11.8031 31.3927 11.1416 30.9871 10.4833 30.3289C9.88057 29.7371 9.41419 29.0208 9.1167 28.2303C8.82377 27.4766 8.62365 26.6149 8.56572 25.3537C8.50779 24.0897 8.49463 23.6875 8.49463 20.4686C8.49463 17.2496 8.50845 16.8474 8.56572 15.5842C8.623 14.3223 8.82377 13.4606 9.1167 12.7069C9.41433 11.9163 9.88068 11.2002 10.4833 10.6083C11.0751 10.0056 11.7913 9.53919 12.5819 9.2417C13.3356 8.94877 14.1973 8.74865 15.4585 8.69072ZM25.1319 10.8235C23.8824 10.7669 23.5073 10.7544 20.3436 10.7544C17.1799 10.7544 16.8047 10.7669 15.5553 10.8235C14.4 10.8762 13.7727 11.0691 13.3553 11.2317C12.8024 11.4463 12.4074 11.703 11.9927 12.1177C11.5787 12.5324 11.3213 12.9274 11.1067 13.4803C10.9441 13.8977 10.7512 14.525 10.6985 15.6803C10.6419 16.9297 10.6294 17.3049 10.6294 20.4686C10.6294 23.6323 10.6419 24.0074 10.6985 25.2569C10.7512 26.4121 10.9441 27.0395 11.1067 27.4569C11.2965 27.9716 11.5993 28.4371 11.9927 28.8195C12.375 29.2129 12.8406 29.5157 13.3553 29.7055C13.7727 29.8682 14.4 30.061 15.5553 30.1136C16.8047 30.1703 17.1793 30.1828 20.3436 30.1828C23.5079 30.1828 23.8824 30.1703 25.1319 30.1136C26.2871 30.061 26.9145 29.8682 27.3319 29.7055C27.8848 29.4909 28.2798 29.2342 28.6945 28.8195C29.0879 28.4372 29.3907 27.9716 29.5805 27.4569C29.7432 27.0395 29.936 26.4121 29.9886 25.2569C30.0453 24.0074 30.0578 23.6323 30.0578 20.4686C30.0578 17.3049 30.0453 16.9297 29.9886 15.6803C29.936 14.525 29.7432 13.8977 29.5805 13.4803C29.3659 12.9274 29.1092 12.5324 28.6945 12.1177C28.2798 11.7037 27.8848 11.4463 27.3319 11.2317C26.9145 11.0691 26.2871 10.8762 25.1319 10.8235ZM18.8307 24.1212C19.3104 24.3199 19.8244 24.4222 20.3436 24.4222C21.3922 24.4222 22.3978 24.0056 23.1392 23.2642C23.8807 22.5228 24.2973 21.5171 24.2973 20.4686C24.2973 19.4201 23.8807 18.4144 23.1392 17.673C22.3978 16.9315 21.3922 16.515 20.3436 16.515C19.8244 16.515 19.3104 16.6172 18.8307 16.8159C18.3509 17.0146 17.9151 17.3058 17.548 17.673C17.1809 18.0401 16.8896 18.4759 16.691 18.9556C16.4923 19.4353 16.39 19.9494 16.39 20.4686C16.39 20.9878 16.4923 21.5019 16.691 21.9816C16.8896 22.4613 17.1809 22.8971 17.548 23.2642C17.9151 23.6313 18.3509 23.9226 18.8307 24.1212ZM16.0371 16.162C17.1792 15.0199 18.7284 14.3782 20.3436 14.3782C21.9589 14.3782 23.508 15.0199 24.6501 16.162C25.7923 17.3042 26.434 18.8534 26.434 20.4686C26.434 22.0838 25.7923 23.6329 24.6501 24.7751C23.508 25.9173 21.9589 26.559 20.3436 26.559C18.7284 26.559 17.1792 25.9173 16.0371 24.7751C14.8949 23.6329 14.2533 22.0838 14.2533 20.4686C14.2533 18.8534 14.8949 17.3042 16.0371 16.162ZM27.7844 15.2856C28.0543 15.0156 28.206 14.6494 28.206 14.2676C28.206 13.8858 28.0543 13.5196 27.7844 13.2496C27.5144 12.9797 27.1482 12.828 26.7664 12.828C26.3846 12.828 26.0184 12.9797 25.7484 13.2496C25.4784 13.5196 25.3267 13.8858 25.3267 14.2676C25.3267 14.6494 25.4784 15.0156 25.7484 15.2856C26.0184 15.5556 26.3846 15.7073 26.7664 15.7073C27.1482 15.7073 27.5144 15.5556 27.7844 15.2856Z" fill="white"/>
</svg>
