<svg width="42" height="41" viewBox="0 0 42 41" fill="none" xmlns="http://www.w3.org/2000/svg">
<rect x="2.31771" y="1.84896" width="37.2396" height="37.2396" rx="18.6198" stroke="white" stroke-width="3.38542"/>
<path d="M24.0498 16.9146C23.293 16.912 22.5431 17.0586 21.8431 17.3462C21.143 17.6337 20.5065 18.0564 19.97 18.5902C19.4335 19.1239 19.0075 19.7583 18.7164 20.4568C18.4252 21.1554 18.2747 21.9045 18.2734 22.6613V28.4673C18.2734 28.703 18.3671 28.929 18.5337 29.0957C18.7004 29.2624 18.9264 29.356 19.1621 29.356H21.2357C21.4714 29.356 21.6974 29.2624 21.8641 29.0957C22.0307 28.929 22.1243 28.703 22.1243 28.4673V22.6613C22.1242 22.3922 22.1807 22.126 22.2903 21.8801C22.3998 21.6343 22.56 21.4143 22.7603 21.2345C22.9606 21.0547 23.1966 20.9191 23.4528 20.8366C23.709 20.7541 23.9797 20.7265 24.2473 20.7556C24.7272 20.8161 25.1682 21.0505 25.4867 21.4145C25.8052 21.7785 25.9791 22.2468 25.9753 22.7304V28.4673C25.9753 28.703 26.0689 28.929 26.2355 29.0957C26.4022 29.2624 26.6282 29.356 26.8639 29.356H28.9375C29.1732 29.356 29.3992 29.2624 29.5659 29.0957C29.7325 28.929 29.8262 28.703 29.8262 28.4673V22.6613C29.8249 21.9045 29.6744 21.1554 29.3833 20.4568C29.0921 19.7583 28.6661 19.1239 28.1296 18.5902C27.5931 18.0564 26.9566 17.6337 26.2566 17.3462C25.5565 17.0586 24.8066 16.912 24.0498 16.9146Z" fill="white"/>
<path d="M15.606 17.8027H12.9399C12.4491 17.8027 12.0513 18.2006 12.0513 18.6914V28.4668C12.0513 28.9576 12.4491 29.3555 12.9399 29.3555H15.606C16.0968 29.3555 16.4946 28.9576 16.4946 28.4668V18.6914C16.4946 18.2006 16.0968 17.8027 15.606 17.8027Z" fill="white"/>
<path d="M14.2729 16.0259C15.4999 16.0259 16.4946 15.0312 16.4946 13.8042C16.4946 12.5772 15.4999 11.5825 14.2729 11.5825C13.0459 11.5825 12.0513 12.5772 12.0513 13.8042C12.0513 15.0312 13.0459 16.0259 14.2729 16.0259Z" fill="white"/>
</svg>
