<svg width="42" height="41" viewBox="0 0 42 41" fill="none" xmlns="http://www.w3.org/2000/svg">
<rect x="2.09896" y="1.84896" width="37.2396" height="37.2396" rx="18.6198" stroke="white" stroke-width="3.38542"/>
<path d="M32.5224 13.1329C31.6507 13.515 30.7176 13.7779 29.7342 13.8971C30.7376 13.2951 31.5048 12.3427 31.8707 11.2082C30.9294 11.7562 29.8882 12.1531 28.7811 12.3775C27.8983 11.4326 26.6364 10.8379 25.236 10.8379C22.5515 10.8379 20.3757 13.0129 20.3757 15.6937C20.3757 16.0796 20.4224 16.4499 20.5031 16.8009C16.4648 16.612 12.8849 14.6718 10.4907 11.7406C10.0701 12.4545 9.83088 13.284 9.83088 14.1867C9.83088 15.8759 10.6907 17.357 11.9903 18.2279C11.1957 18.205 10.4478 17.985 9.79237 17.6229V17.6814C9.79237 20.0371 11.466 22.0011 13.6877 22.4484C13.2826 22.5558 12.8501 22.618 12.411 22.618C12.0992 22.618 11.8015 22.5876 11.5045 22.5328C12.1296 24.4612 13.9188 25.8653 16.0516 25.9075C14.3935 27.2072 12.2918 27.9819 10.0271 27.9819C9.64129 27.9819 9.2562 27.9633 8.86963 27.9167C11.0298 29.2941 13.5796 30.0999 16.3337 30.0999C25.2701 30.0999 30.1533 22.698 30.1533 16.2877C30.1533 16.0833 30.1533 15.8752 30.1378 15.6663C31.0909 14.9872 31.9159 14.1267 32.5675 13.1514L32.5224 13.1329Z" fill="white"/>
</svg>
