<svg width="42" height="41" viewBox="0 0 42 41" fill="none" xmlns="http://www.w3.org/2000/svg">
<rect x="2.50521" y="1.84896" width="37.2396" height="37.2396" rx="18.6198" stroke="white" stroke-width="3.38542"/>
<path d="M32.4791 14.7427C32.1976 13.7434 31.4183 12.9597 30.4145 12.6826C28.5662 12.1885 21.1362 12.1885 21.1362 12.1885C21.1362 12.1885 13.7201 12.1766 11.8526 12.6826C10.854 12.9604 10.071 13.7434 9.79248 14.7427C9.44209 16.6369 9.268 18.5541 9.27615 20.4801C9.27245 22.3936 9.44579 24.3078 9.79248 26.1901C10.071 27.1894 10.854 27.9732 11.8526 28.2547C13.7009 28.7488 21.1362 28.7488 21.1362 28.7488C21.1362 28.7488 28.5477 28.7488 30.4145 28.2547C31.4183 27.9732 32.1976 27.1902 32.4791 26.1901C32.8191 24.3078 32.985 22.3936 32.9732 20.4801C32.985 18.5541 32.8228 16.6369 32.4791 14.7427ZM18.7627 24.0263V16.9184L24.9475 20.4801L18.7627 24.0263Z" fill="white"/>
</svg>
