<svg width="41" height="41" viewBox="0 0 41 41" fill="none" xmlns="http://www.w3.org/2000/svg">
<rect x="1.69271" y="1.69271" width="37.2396" height="37.2396" rx="18.6198" stroke="#333333" stroke-width="3.38542"/>
<path fill-rule="evenodd" clip-rule="evenodd" d="M15.4273 8.53447C16.6912 8.47654 17.094 8.46338 20.3123 8.46338C23.5313 8.46338 23.9335 8.4772 25.1967 8.53447C26.4586 8.59175 27.3204 8.79252 28.0741 9.08545C28.8646 9.38308 29.5807 9.84943 30.1726 10.452C30.7753 11.0439 31.2417 11.76 31.5392 12.5506C31.8321 13.3043 32.0322 14.166 32.0902 15.4273C32.1482 16.6912 32.1613 17.094 32.1613 20.3123C32.1613 23.5306 32.1475 23.9335 32.0902 25.1974C32.0329 26.4586 31.8321 27.3204 31.5392 28.0741C31.2364 28.8529 30.8309 29.5143 30.1726 30.1726C29.5808 30.7753 28.8646 31.2417 28.0741 31.5392C27.3204 31.8321 26.4586 32.0322 25.1974 32.0902C23.9335 32.1482 23.5306 32.1613 20.3123 32.1613C17.094 32.1613 16.6912 32.1475 15.4273 32.0902C14.166 32.0329 13.3043 31.8321 12.5506 31.5392C11.7719 31.2364 11.1103 30.8309 10.452 30.1726C9.84932 29.5808 9.38294 28.8646 9.08545 28.0741C8.79252 27.3204 8.5924 26.4586 8.53447 25.1974C8.47654 23.9335 8.46338 23.5313 8.46338 20.3123C8.46338 17.0934 8.4772 16.6912 8.53447 15.4279C8.59175 14.166 8.79252 13.3043 9.08545 12.5506C9.38308 11.7601 9.84943 11.044 10.452 10.452C11.0439 9.84932 11.76 9.38294 12.5506 9.08545C13.3043 8.79252 14.166 8.5924 15.4273 8.53447ZM25.1006 10.6673C23.8512 10.6107 23.476 10.5982 20.3123 10.5982C17.1487 10.5982 16.7735 10.6107 15.524 10.6673C14.3688 10.7199 13.7414 10.9128 13.3241 11.0754C12.7711 11.29 12.3762 11.5467 11.9614 11.9614C11.5474 12.3762 11.29 12.7711 11.0754 13.3241C10.9128 13.7414 10.7199 14.3688 10.6673 15.524C10.6107 16.7735 10.5982 17.1487 10.5982 20.3123C10.5982 23.476 10.6107 23.8512 10.6673 25.1006C10.7199 26.2559 10.9128 26.8832 11.0754 27.3006C11.2652 27.8153 11.568 28.2809 11.9614 28.6633C12.3437 29.0567 12.8094 29.3594 13.3241 29.5492C13.7414 29.7119 14.3688 29.9047 15.524 29.9574C16.7735 30.014 17.148 30.0265 20.3123 30.0265C23.4767 30.0265 23.8512 30.014 25.1006 29.9574C26.2559 29.9047 26.8832 29.7119 27.3006 29.5492C27.8536 29.3347 28.2486 29.078 28.6633 28.6633C29.0567 28.281 29.3594 27.8153 29.5492 27.3006C29.7119 26.8832 29.9047 26.2559 29.9574 25.1006C30.014 23.8512 30.0265 23.476 30.0265 20.3123C30.0265 17.1487 30.014 16.7735 29.9574 15.524C29.9047 14.3688 29.7119 13.7414 29.5492 13.3241C29.3347 12.7711 29.078 12.3762 28.6633 11.9614C28.2486 11.5474 27.8536 11.29 27.3006 11.0754C26.8832 10.9128 26.2559 10.7199 25.1006 10.6673ZM18.7994 23.9649C19.2791 24.1637 19.7931 24.2659 20.3123 24.2659C21.361 24.2659 22.3665 23.8494 23.1079 23.1079C23.8495 22.3665 24.266 21.3609 24.266 20.3123C24.266 19.2638 23.8495 18.2582 23.1079 17.5167C22.3665 16.7753 21.361 16.3587 20.3123 16.3587C19.7931 16.3587 19.2791 16.461 18.7994 16.6597C18.3197 16.8584 17.8839 17.1496 17.5167 17.5167C17.1496 17.8838 16.8584 18.3197 16.6597 18.7993C16.461 19.279 16.3588 19.7931 16.3588 20.3123C16.3588 20.8315 16.461 21.3457 16.6597 21.8253C16.8584 22.305 17.1496 22.7408 17.5167 23.1079C17.8839 23.475 18.3197 23.7663 18.7994 23.9649ZM16.0058 16.0058C17.148 14.8636 18.6971 14.222 20.3123 14.222C21.9277 14.222 23.4768 14.8636 24.6189 16.0058C25.761 17.148 26.4027 18.6971 26.4027 20.3123C26.4027 21.9276 25.761 23.4767 24.6189 24.6189C23.4768 25.761 21.9277 26.4027 20.3123 26.4027C18.6971 26.4027 17.148 25.761 16.0058 24.6189C14.8637 23.4767 14.222 21.9276 14.222 20.3123C14.222 18.6971 14.8637 17.148 16.0058 16.0058ZM27.7532 15.1294C28.0231 14.8594 28.1748 14.4932 28.1748 14.1114C28.1748 13.7296 28.0231 13.3634 27.7532 13.0934C27.4831 12.8234 27.117 12.6717 26.7351 12.6717C26.3534 12.6717 25.9871 12.8234 25.7172 13.0934C25.4471 13.3634 25.2955 13.7296 25.2955 14.1114C25.2955 14.4932 25.4471 14.8594 25.7172 15.1294C25.9871 15.3993 26.3534 15.551 26.7351 15.551C27.117 15.551 27.4831 15.3993 27.7532 15.1294Z" fill="#333333"/>
</svg>
