<svg width="41" height="41" viewBox="0 0 41 41" fill="none" xmlns="http://www.w3.org/2000/svg">
<rect x="1.69271" y="1.69271" width="37.2396" height="37.2396" rx="18.6198" stroke="#333333" stroke-width="3.38542"/>
<path d="M23.4248 16.7583C22.668 16.7557 21.9181 16.9024 21.2181 17.1899C20.518 17.4774 19.8815 17.9002 19.345 18.4339C18.8085 18.9677 18.3825 19.602 18.0914 20.3006C17.8002 20.9992 17.6497 21.7483 17.6484 22.5051V28.3111C17.6484 28.5468 17.7421 28.7728 17.9087 28.9395C18.0754 29.1061 18.3014 29.1997 18.5371 29.1997H20.6107C20.8464 29.1997 21.0724 29.1061 21.2391 28.9395C21.4057 28.7728 21.4993 28.5468 21.4993 28.3111V22.5051C21.4992 22.2359 21.5557 21.9697 21.6653 21.7239C21.7748 21.478 21.935 21.258 22.1353 21.0782C22.3356 20.8984 22.5716 20.7628 22.8278 20.6803C23.084 20.5978 23.3547 20.5702 23.6223 20.5994C24.1022 20.6598 24.5432 20.8943 24.8617 21.2583C25.1802 21.6223 25.3541 22.0905 25.3503 22.5742V28.3111C25.3503 28.5468 25.4439 28.7728 25.6105 28.9395C25.7772 29.1061 26.0032 29.1997 26.2389 29.1997H28.3125C28.5482 29.1997 28.7742 29.1061 28.9409 28.9395C29.1075 28.7728 29.2012 28.5468 29.2012 28.3111V22.5051C29.1999 21.7483 29.0494 20.9992 28.7583 20.3006C28.4671 19.602 28.0411 18.9677 27.5046 18.4339C26.9681 17.9002 26.3316 17.4774 25.6316 17.1899C24.9315 16.9024 24.1816 16.7557 23.4248 16.7583Z" fill="#333333"/>
<path d="M14.981 17.6465H12.3149C11.8241 17.6465 11.4263 18.0444 11.4263 18.5352V28.3105C11.4263 28.8013 11.8241 29.1992 12.3149 29.1992H14.981C15.4718 29.1992 15.8696 28.8013 15.8696 28.3105V18.5352C15.8696 18.0444 15.4718 17.6465 14.981 17.6465Z" fill="#333333"/>
<path d="M13.6479 15.8696C14.8749 15.8696 15.8696 14.8749 15.8696 13.6479C15.8696 12.4209 14.8749 11.4263 13.6479 11.4263C12.4209 11.4263 11.4263 12.4209 11.4263 13.6479C11.4263 14.8749 12.4209 15.8696 13.6479 15.8696Z" fill="#333333"/>
</svg>
