<svg width="41" height="41" viewBox="0 0 41 41" fill="none" xmlns="http://www.w3.org/2000/svg">
<rect x="1.69271" y="1.69271" width="37.2396" height="37.2396" rx="18.6198" stroke="#333333" stroke-width="3.38542"/>
<path d="M32.1161 12.9766C31.2445 13.3588 30.3114 13.6217 29.3279 13.7409C30.3314 13.1388 31.0986 12.1865 31.4644 11.0519C30.5232 11.5999 29.482 11.9969 28.3748 12.2213C27.4921 11.2763 26.2302 10.6816 24.8298 10.6816C22.1452 10.6816 19.9695 12.8567 19.9695 15.5375C19.9695 15.9233 20.0161 16.2936 20.0968 16.6446C16.0586 16.4558 12.4787 14.5155 10.0845 11.5844C9.66383 12.2983 9.42463 13.1277 9.42463 14.0305C9.42463 15.7197 10.2844 17.2008 11.5841 18.0717C10.7895 18.0487 10.0415 17.8288 9.38612 17.4667V17.5252C9.38612 19.8809 11.0598 21.8448 13.2815 22.2921C12.8764 22.3995 12.4439 22.4617 12.0047 22.4617C11.693 22.4617 11.3953 22.4314 11.0983 22.3766C11.7233 24.305 13.5125 25.7091 15.6453 25.7513C13.9872 27.051 11.8855 27.8256 9.62087 27.8256C9.23504 27.8256 8.84995 27.8071 8.46338 27.7604C10.6236 29.1379 13.1733 29.9436 15.9275 29.9436C24.8638 29.9436 29.7471 22.5417 29.7471 16.1314C29.7471 15.927 29.7471 15.7189 29.7315 15.5101C30.6846 14.831 31.5096 13.9705 32.1613 12.9951L32.1161 12.9766Z" fill="#333333"/>
</svg>
