<svg width="41" height="41" viewBox="0 0 41 41" fill="none" xmlns="http://www.w3.org/2000/svg">
<rect x="1.69271" y="1.69271" width="37.2396" height="37.2396" rx="18.6198" stroke="#333333" stroke-width="3.38542"/>
<path d="M31.6666 14.5865C31.3851 13.5872 30.6058 12.8034 29.602 12.5264C27.7537 12.0323 20.3237 12.0323 20.3237 12.0323C20.3237 12.0323 12.9076 12.0204 11.0401 12.5264C10.0415 12.8042 9.25852 13.5872 8.97998 14.5865C8.62959 16.4807 8.4555 18.3978 8.46365 20.3239C8.45995 22.2373 8.63329 24.1515 8.97998 26.0339C9.25852 27.0332 10.0415 27.8169 11.0401 28.0984C12.8884 28.5925 20.3237 28.5925 20.3237 28.5925C20.3237 28.5925 27.7352 28.5925 29.602 28.0984C30.6058 27.8169 31.3851 27.0339 31.6666 26.0339C32.0066 24.1515 32.1725 22.2373 32.1607 20.3239C32.1725 18.3978 32.0103 16.4807 31.6666 14.5865ZM17.9502 23.87V16.7622L24.135 20.3239L17.9502 23.87Z" fill="#333333"/>
</svg>
